<?xml version="1.0" encoding="UTF-8" standalone="no"?>
<!-- Created with Inkscape (http://www.inkscape.org/) -->

<svg
   width="50mm"
   height="50mm"
   viewBox="0 0 50 50"
   version="1.1"
   id="svg5"
   inkscape:version="1.2.1 (9c6d41e410, 2022-07-14)"
   sodipodi:docname="logo.svg"
   xml:space="preserve"
   xmlns:inkscape="http://www.inkscape.org/namespaces/inkscape"
   xmlns:sodipodi="http://sodipodi.sourceforge.net/DTD/sodipodi-0.dtd"
   xmlns="http://www.w3.org/2000/svg"
   xmlns:svg="http://www.w3.org/2000/svg"><sodipodi:namedview
     id="namedview7"
     pagecolor="#ffffff"
     bordercolor="#666666"
     borderopacity="1.0"
     inkscape:showpageshadow="2"
     inkscape:pageopacity="0.0"
     inkscape:pagecheckerboard="0"
     inkscape:deskcolor="#d1d1d1"
     inkscape:document-units="mm"
     showgrid="false"
     inkscape:zoom="1.7782217"
     inkscape:cx="-137.49692"
     inkscape:cy="91.383431"
     inkscape:window-width="2160"
     inkscape:window-height="1136"
     inkscape:window-x="-7"
     inkscape:window-y="-7"
     inkscape:window-maximized="1"
     inkscape:current-layer="layer1" /><defs
     id="defs2" /><g
     inkscape:label="Layer 1"
     inkscape:groupmode="layer"
     id="layer1"><path
       id="path977"
       style="fill:#808080;stroke-width:1"
       d="m 1.8834651,1.83 c -0.75946,0.01699 -0.7398405,0.924486 -0.346901,1.373331 2.7795923,4.502798 6.4443376,8.367327 10.0676049,12.193075 0.775195,0.737566 1.489224,1.550215 2.332031,2.210938 0.631006,0.227606 1.013697,-0.565899 1.523571,-0.835536 0.495292,-0.623185 1.076802,0.240676 1.394801,0.61697 0.7371,1.135986 1.253426,2.449215 2.323926,3.34015 0.606151,0.669791 1.505515,0.950238 2.163952,1.528806 0.306737,0.417075 -0.151498,1.215702 0.540255,1.303099 1.437442,0.836142 3.502247,-0.824935 2.809354,-2.398802 -0.677714,-1.494533 -2.096181,-2.471668 -3.229442,-3.603425 -2.676514,-2.397638 -5.165043,-4.99766 -7.869326,-7.368394 C 11.007256,7.876969 8.5183729,5.434595 5.7176678,3.37718 4.559104,2.664458 3.2728548,1.896152 1.8834651,1.83 Z" /><path
       style="fill:#000000;stroke-width:1"
       d="m 1.816665,2.3900548 c 0.140773,-0.116394 0.955194,0.06894 1.671582,0.380396 0.518167,0.225277 1.259754,0.612461 1.719944,0.897986 1.232452,0.764678 4.050105,3.229183 10.682763,9.3438652 0.431328,0.397644 1.15398,1.088787 1.605893,1.535873 1.453075,1.437555 1.98365,1.938591 3.431054,3.240043 1.713712,1.540902 2.598956,2.436423 2.991869,3.026595 0.333766,0.501335 0.449632,0.972164 0.33221,1.350002 -0.114233,0.367587 -0.487582,0.752716 -0.942515,0.97225 -0.190413,0.09189 -0.221891,0.09947 -0.44708,0.107673 -0.270868,0.0099 -0.452206,-0.02617 -0.702397,-0.139619 l -0.148786,-0.06746 -0.01402,-0.299212 c -0.02276,-0.485458 -0.127558,-0.737904 -0.419417,-1.010469 -0.146578,-0.13689 -0.238166,-0.195084 -0.545818,-0.346808 -0.913655,-0.450588 -1.709566,-1.12899 -2.387176,-2.034741 -0.256713,-0.343135 -0.465113,-0.689961 -0.696172,-1.158586 -0.356878,-0.723806 -0.68591,-1.205924 -1.114978,-1.633742 -0.417462,-0.416245 -0.683912,-0.555236 -1.064385,-0.555236 h -0.187969 l -0.685524,0.547364 c -0.377037,0.30105 -0.699126,0.557949 -0.71575,0.570885 -0.03677,0.0286 -0.361784,-0.273295 -1.464112,-1.359914 C 11.642957,14.699564 11.052461,14.082153 9.42358,12.314812 7.933722,10.698305 6.272519,8.7896848 5.278783,7.5526818 3.849294,5.7732548 2.393924,3.7140358 1.898629,2.7700628 1.769111,2.5232168 1.751938,2.4435848 1.816679,2.3900548 Z m 0.542194,0.525499 c 0.733913,1.144606 2.207197,3.168703 3.269696,4.492128 1.698288,2.115352 3.01198,3.6467522 4.591885,5.3528772 1.206424,1.302797 3.555426,3.643946 4.046084,4.032556 l 0.0922,0.07303 0.196951,-0.181228 c 0.211938,-0.195019 0.448185,-0.482522 1.275558,-1.552304 0.674267,-0.871817 0.628547,-0.818606 0.55346,-0.644145 -0.09295,0.215983 -0.240781,0.477723 -0.425643,0.753632 -0.155556,0.232173 -0.240206,0.343527 -0.501793,0.660107 -0.0604,0.07311 -0.08295,0.110155 -0.05013,0.08233 0.427256,-0.361874 0.726432,-0.623642 0.78833,-0.689765 0.251203,-0.268354 0.564292,-0.950496 0.564292,-1.229449 0,-0.06921 -0.08543,-0.153568 -0.930225,-0.918548 C 15.616964,12.954293 15.154779,12.530926 14.802451,12.20596 13.720131,11.20769 10.351179,8.1541558 9.026477,6.9707678 8.375794,6.3894958 7.467926,5.6006448 7.075225,5.2753198 6.854397,5.0923808 6.509814,4.8063898 6.309488,4.6397868 5.793238,4.2104488 5.685533,4.1314928 5.298431,3.8986098 3.958237,3.0923428 3.140731,2.7113578 2.510568,2.5993738 c -0.38635,-0.06866 -0.379332,-0.06808 -0.364679,-0.0299 0.0073,0.01911 0.103163,0.174846 0.212954,0.346075 z M 16.045914,15.666631 c 0.149922,-0.02866 0.4278,0.08125 0.68969,0.2728 0.221855,0.162269 0.83803,0.786127 0.989585,1.001928 0.07001,0.09969 0.292639,0.518371 0.494732,0.93041 0.509034,1.037848 0.758259,1.420106 1.279491,1.962474 0.519553,0.540621 1.054771,0.929579 1.742781,1.266532 0.841677,0.412209 1.029666,0.678709 1.071631,1.519185 l 0.01633,0.32677 0.132917,0.04473 c 0.305494,0.102815 0.726022,0.06853 1.03774,-0.0846 0.208815,-0.102578 0.446212,-0.342543 0.557251,-0.563282 0.08231,-0.163641 0.08456,-0.175622 0.08368,-0.44708 -9.85e-4,-0.249261 -0.009,-0.301607 -0.07624,-0.492075 -0.134573,-0.380703 -0.339106,-0.675363 -0.86721,-1.249329 -0.48959,-0.53211 -1.126472,-1.128645 -2.677715,-2.508074 -1.687133,-1.50027 -2.738683,-2.479062 -3.217278,-2.994666 -0.1393,-0.150074 -0.260821,-0.273616 -0.270045,-0.274539 -0.0092,-8.95e-4 -0.03374,0.04043 -0.0545,0.09189 -0.128331,0.318342 -0.430533,0.699281 -0.820076,1.033745 -0.09288,0.07975 -0.169628,0.151648 -0.170547,0.159774 -9.85e-4,0.0081 0.02512,0.0097 0.0578,0.0034 z m 1.363654,0.637972 c 0.02943,-0.02573 0.671704,-0.431592 0.837429,-0.529193 0.01381,-0.0081 0.193269,0.137624 0.398746,0.323938 0.205477,0.186315 0.67228,0.606955 1.037334,0.934755 2.311366,2.075462 3.35509,3.078013 3.86438,3.711931 0.264582,0.329326 0.393061,0.557982 0.439664,0.782452 0.04139,0.199407 0.01746,0.566991 -0.04786,0.735591 -0.20725,0.534715 -0.838123,0.791952 -1.403694,0.57235 l -0.06041,-0.02345 v -0.41645 c 0,-0.377076 -0.0051,-0.427243 -0.05274,-0.53063 C 22.295824,21.591876 22.146899,21.471126 21.345714,20.992902 20.709016,20.612856 20.53099,20.495417 20.201799,20.238281 19.393212,19.60668 18.750562,18.80854 18.354692,17.94427 18.143293,17.482751 17.881578,16.975203 17.763067,16.796937 17.702947,16.706507 17.590059,16.566401 17.512194,16.485582 17.384797,16.35335 17.374526,16.335231 17.409572,16.304606 Z m 0.700989,0.771505 c 0.110165,0.242561 0.448575,0.23485 0.662516,-0.01509 0.142834,-0.16687 0.170835,-0.325562 0.08772,-0.497234 -0.03667,-0.0758 -0.07784,-0.116427 -0.156511,-0.154509 -0.101733,-0.04925 -0.112697,-0.04993 -0.234285,-0.01458 -0.215559,0.06267 -0.396886,0.297977 -0.402634,0.522508 -9.85e-4,0.03323 0.01859,0.10474 0.04319,0.158915 z m 1.976402,1.961302 c 0.05252,0.110673 0.213207,0.187576 0.34255,0.16394 0.132758,-0.02426 0.276501,-0.118205 0.355676,-0.232454 0.06239,-0.09004 0.07081,-0.122981 0.07081,-0.277496 0,-0.15366 -0.0074,-0.183315 -0.06042,-0.239984 -0.07007,-0.075 -0.172088,-0.132626 -0.234423,-0.132433 -0.339714,0.0011 -0.615979,0.419615 -0.474187,0.718427 z m 2.431203,2.328531 c 0.06919,0.102681 0.146018,0.142073 0.277965,0.142526 0.136763,4.72e-4 0.239128,-0.04579 0.350335,-0.158339 0.215409,-0.217999 0.195143,-0.560426 -0.03975,-0.671897 -0.105805,-0.05021 -0.215102,-0.05007 -0.321482,4.11e-4 -0.26851,0.127416 -0.405962,0.481172 -0.267051,0.687299 z"
       id="path921" /></g></svg>
